<svg width="1553" height="1375" viewBox="0 0 1553 1375" fill="none" xmlns="http://www.w3.org/2000/svg">
<path d="M880.003 473.5C875.336 428 843.503 321.6 753.503 260C641.003 183 539.503 96.5 263.503 189.5" stroke="black" stroke-width="32" stroke-linecap="round"/>
<path d="M263.243 191C250.031 361.691 306.188 690.17 636.503 638.563" stroke="black" stroke-width="32" stroke-linecap="round"/>
<path d="M636.503 639C634.003 654.5 630.103 689.4 634.503 705" stroke="black" stroke-width="32" stroke-linecap="round"/>
<path d="M493.503 825C581.67 799.667 714.503 746.5 815.503 609.5C914.003 492.5 913.503 493 971.503 473C1029.5 453 1126 532.5 1126 609.5C1126 652.5 1086 685.5 1042 814.5C1035.5 962.5 1086 1179.5 972.503 1312.5C859.003 1445.5 551.003 1247 528.003 1236.5C505.003 1226 144.003 1166 16.0029 936" stroke="black" stroke-width="32" stroke-linecap="round"/>
<path d="M17.5029 937C67.3363 964.333 197.603 1018.2 320.003 1015C473.003 1011 521.003 1058 716.503 1212" stroke="black" stroke-width="32" stroke-linecap="round"/>
<path d="M934.003 608C945.003 664 925.003 786.7 757.003 829.5C711.003 839.9 637.17 872.833 606.003 888C551.503 908.333 396.003 944.5 210.003 926.5" stroke="black" stroke-width="32" stroke-linecap="round"/>
<path d="M873.003 172C904.207 172 929.503 197.296 929.503 228.5C929.503 259.704 904.207 285 873.003 285C841.799 285 816.503 259.704 816.503 228.5C816.503 197.296 841.799 172 873.003 172Z" stroke="black" stroke-width="32"/>
<path d="M1021.5 188C1079.31 188 1126.5 235.495 1126.5 294.5C1126.5 353.505 1079.31 401 1021.5 401C963.698 401 916.503 353.505 916.503 294.5C916.503 235.495 963.698 188 1021.5 188Z" stroke="black" stroke-width="32"/>
<line x1="1386.43" y1="470.266" x2="1492.77" y2="92.0719" stroke="black" stroke-width="32" stroke-linecap="round"/>
<circle cx="1502.5" cy="50" r="34" stroke="black" stroke-width="32"/>
</svg>
